# xmcd
#
# Track frame offsets:
# 150
# 15443
# 32245
# 48765
# 65080
# 83405
# 98993
# 112775
# 129040
# 146763
#
# Disc length: 2190 seconds
#
#
# Revision: 5
# Processed by: cddbd v1.5.1PL0 Copyright (c) Steve Scherf et al.
# Submitted via: FreeRIP 2.80 
#
DISCID=72088d0a,73088c0a
DTITLE=Blackhawk - Blackhawk
DYEAR=1994
DGENRE=Country
TTITLE0=Goodbye Says It All
TTITLE1=Down In Flames
TTITLE2=Every Once In A While
TTITLE3=I Sure Can Smell The Rain
TTITLE4=That's Just About Right
TTITLE5=One More Heartache
TTITLE6=Love Like This
TTITLE7=Between Ragged And Wrong
TTITLE8=Stone By Stone
TTITLE9=Let 'Em Whirl
EXTD=
EXTT0=
EXTT1=
EXTT2=
EXTT3=
EXTT4=
EXTT5=
EXTT6=
EXTT7=
EXTT8=
EXTT9=
PLAYORDER=
